<svg id="Capa_1" enable-background="new 0 0 476.756 476.756" height="512" viewBox="0 0 476.756 476.756" width="512" xmlns="http://www.w3.org/2000/svg">
    <g id="XMLID_2887_"><path id="XMLID_2535_" d="m223.378 76.758v37.604h15 15v-37.604c-4.768 1.371-9.797 2.121-15 2.121s-10.232-.75-15-2.121z"/><path id="XMLID_2534_" d="m253.378 399.999v-38.808h-15-15v38.808c4.768-1.371 9.797-2.121 15-2.121s10.232.75 15 2.121z"/><path id="XMLID_2533_" d="m114.963 252.776v-15-15h-38.32c1.375 4.818 2.099 9.852 2.099 15 0 5.203-.75 10.232-2.121 15z"/><path id="XMLID_2532_" d="m128.623 129.192c3.515-3.636 7.586-6.728 12.083-9.13l-68.783-68.784c-2.473 4.449-5.544 8.522-9.117 12.096s-7.645 6.646-12.092 9.12l69.157 69.157c2.253-4.611 5.221-8.807 8.752-12.459z"/><path id="XMLID_2531_" d="m120.278 334.697-69.565 69.565c4.448 2.474 8.52 5.546 12.092 9.12 3.573 3.574 6.644 7.647 9.117 12.096l69.579-69.579c-4.556-2.327-8.704-5.341-12.29-8.923-3.585-3.582-6.602-7.727-8.933-12.279z"/><path id="XMLID_2530_" d="m400.135 222.776h-38.342v15 15h38.342c-1.371-4.768-2.121-9.797-2.121-15 0-5.203.75-10.232 2.121-15z"/><path id="XMLID_2529_" d="m356.887 141.651 69.157-69.157c-4.448-2.474-8.52-5.546-12.092-9.12-3.573-3.574-6.644-7.647-9.117-12.096l-68.783 68.783c4.497 2.402 8.568 5.494 12.083 9.13 3.529 3.653 6.497 7.849 8.752 12.46z"/><path id="XMLID_2528_" d="m347.545 346.976c-3.586 3.582-7.734 6.596-12.29 8.923l69.579 69.579c2.473-4.449 5.544-8.522 9.117-12.096s7.645-6.646 12.092-9.12l-69.565-69.565c-2.331 4.552-5.348 8.697-8.933 12.279z"/><path id="XMLID_2527_" d="m316.96 144.732c-1.196-.242-155.968-.242-157.164 0-7.656 1.552-13.579 7.827-14.643 15.648-.112.824-.061 154.799.185 156.003 1.481 7.256 7.203 12.968 14.464 14.437 1.194.242 155.958.242 157.152 0 7.261-1.469 12.982-7.181 14.464-14.437.246-1.204.297-155.179.185-156.003-1.064-7.821-6.987-14.096-14.643-15.648zm-16.7 139.926c0 8.284-6.716 15-15 15h-93.764c-8.284 0-15-6.716-15-15v-93.764c0-8.284 6.716-15 15-15h93.764c8.284 0 15 6.716 15 15z"/><path id="XMLID_2526_" d="m206.496 205.894h63.764v63.764h-63.764z"/><circle id="XMLID_2525_" cx="452.385" cy="24.953" r="24.371"/><circle id="XMLID_2524_" cx="452.385" cy="237.776" r="24.371"/><circle id="XMLID_2523_" cx="452.385" cy="451.804" r="24.371"/><circle id="XMLID_2513_" cx="238.378" cy="451.804" r="24.371"/><circle id="XMLID_2512_" cx="24.371" cy="451.804" r="24.371"/><circle id="XMLID_2511_" cx="24.371" cy="237.776" r="24.371"/><circle id="XMLID_2503_" cx="24.371" cy="24.953" r="24.371"/><circle id="XMLID_2486_" cx="238.378" cy="24.953" r="24.371"/>
    </g>
</svg>